<svg width="137" height="29" viewBox="0 0 137 29" fill="none" xmlns="http://www.w3.org/2000/svg">
<path d="M17.2673 6.44862C17.2673 7.44694 17.1606 8.6258 16.2446 8.6258C15.4351 8.6258 15.1723 7.71245 14.5536 6.76268C13.636 5.35624 12.0877 2.83161 9.04061 2.83161C5.99354 2.83161 4.44672 5.01031 4.44672 7.10253C4.44972 14.0407 18.3035 10.7651 18.3065 20.1823C18.3065 24.0785 15.1438 28.9624 8.3468 28.9639C5.07296 28.9639 1.79911 27.8594 0.77491 25.9477C0.334893 25.142 0.154682 24.2636 0.108127 23.4352C0.0615722 22.6068 0 21.9802 0 21.2944C0 20.5373 0.440016 20.1884 0.916075 20.1884C1.86819 20.1884 2.02288 21.3308 3.41651 23.2061C4.55935 24.7324 6.42905 26.8246 9.40554 26.8231C13.1554 26.8231 14.9516 24.1877 14.9516 21.783C14.9606 14.159 1.1068 17.7836 1.1038 8.66828C1.1038 4.55515 4.55335 0.85015 10.1354 0.848633C12.7064 0.848633 15.2069 1.6042 16.2671 2.8301C17.006 3.67214 17.2553 5.23486 17.2568 6.45014" fill="black"/>
<path d="M37.9372 21.8219C37.9372 23.8064 38.0454 25.2614 38.4869 25.9821C39.1176 26.9804 40.2845 27.1245 40.2845 27.8088C40.2845 28.3383 39.8084 28.531 39.2498 28.531H33.0715C32.5234 28.534 32.0353 28.3413 32.0353 27.8118C32.0353 27.0547 33.2848 27.0062 33.8674 25.8273C34.2369 25.1051 34.3435 23.723 34.342 21.8219V15.8684C34.339 12.5139 32.648 11.0953 30.481 11.0953C29.3742 11.0953 28.2073 11.5171 27.3153 12.4319C25.9231 13.8748 25.5897 15.9443 25.5927 21.8128C25.5927 23.7609 25.7009 25.1673 26.1063 25.8895C26.7251 26.9956 27.9039 27.1033 27.9039 27.8012C27.9039 28.3307 27.4639 28.5234 26.9158 28.5234H20.8216C20.2735 28.5264 19.8335 28.3337 19.8335 27.8042C19.8335 26.9986 21.155 26.9622 21.7137 25.7469C22.0471 24.9898 22.1537 23.6896 22.1522 21.8143L22.1462 6.18108C22.1462 4.95518 22.1101 4.2694 21.7768 3.77631C21.1926 2.86296 19.6458 3.05564 19.6458 2.2136C19.6458 1.79333 19.8245 1.52782 20.6685 1.33514C22.026 1.03473 23.1328 0.649362 24.085 0.191167C24.3598 0.0728256 24.5866 0 24.7998 0C25.2759 0 25.6093 0.336819 25.6093 1.06963L25.6123 11.5201C25.6123 11.64 25.6483 11.7128 25.7189 11.7128C25.7895 11.7128 25.8255 11.64 25.8976 11.5201C27.0404 9.76319 29.0978 8.20047 31.8476 8.19895C33.9425 8.19895 35.6696 9.11231 36.6577 10.5658C37.4672 11.7082 37.9087 13.0783 37.9087 15.7607V21.8219H37.9342H37.9372Z" fill="black"/>
<path d="M59.9941 18.4476C59.9956 24.172 56.1406 28.936 50.6652 28.9375C45.1898 28.939 41.2957 24.9366 41.2942 18.7191C41.2927 12.9583 45.1838 8.1837 50.7778 8.18066C56.3719 8.17915 60.0047 12.6746 60.0062 18.4354M50.2657 10.0802C47.0279 10.0802 45.0531 13.0524 45.0546 17.2975C45.0561 22.5652 47.4499 26.953 51.0451 26.9515C54.6404 26.9515 56.2578 23.2814 56.2563 19.5536C56.2563 15.1643 54.3836 10.0893 50.2657 10.0908" fill="black"/>
<path d="M80.634 18.4407C80.6355 24.1651 76.7805 28.9291 71.3051 28.9307C65.8297 28.9322 61.9356 24.9298 61.9341 18.7123C61.9326 12.9515 65.8236 8.17686 71.4177 8.17383C77.0118 8.17231 80.6446 12.6678 80.6461 18.4286M70.9056 10.0749C67.6678 10.0749 65.693 13.0471 65.6945 17.2922C65.696 22.5599 68.0898 26.9477 71.685 26.9462C75.2803 26.9462 76.8976 23.276 76.8961 19.5483C76.8961 15.159 75.0234 10.084 70.9056 10.0855" fill="black"/>
<path d="M97.9872 10.5465C97.9872 11.4963 97.7259 12.4582 96.7738 12.4597C96.0003 12.4597 95.7015 11.7026 94.6788 11.7026C92.7625 11.7026 91.001 14.253 89.717 16.5501C88.1341 19.413 86.9928 22.5036 86.3755 25.5941L85.8995 27.964C85.8289 28.3129 85.6382 28.4571 85.2687 28.542L82.9125 28.9638C82.6857 29.0002 82.6512 29.0002 82.5791 29.0002C82.4364 29.0002 82.2817 28.8804 82.2817 28.6513C82.2817 28.6149 82.3178 28.3873 82.3523 28.231L84.9549 14.9176C85.1681 13.7751 85.3228 12.9695 85.3228 12.3565C85.3228 11.7072 85.06 11.3218 84.5494 11.1306C83.8466 10.8667 83.0371 10.7104 83.0371 10.0246C83.0371 9.56793 83.4066 9.30242 84.3226 9.18256C85.6442 8.98987 86.8576 8.72436 88.0725 8.33899C88.3338 8.26617 88.5486 8.18272 88.7393 8.18272C89.2514 8.18272 89.5488 8.44671 89.5488 8.90339C89.5488 8.93981 89.5488 8.97622 89.5127 9.16738L88.3714 14.9646C88.3353 15.1573 88.3353 15.1937 88.3353 15.1937C88.3353 15.2665 88.4074 15.3136 88.442 15.3136C88.4765 15.3136 88.5141 15.3136 88.5486 15.2407C90.7847 10.9713 93.8078 8.17969 95.9733 8.17969C97.1162 8.17969 97.9616 8.82905 97.9616 10.548" fill="black"/>
<path d="M114.913 8.97613C114.913 9.55267 114.212 12.8723 113.298 17.3708C112.56 20.9544 111.907 24.0101 111.907 25.1161C111.907 25.7655 112.086 26.1508 112.61 26.1508C113.491 26.1508 114.157 24.9356 114.847 24.9356C115.251 24.9356 115.43 25.236 115.432 25.5485C115.432 25.7412 115.361 26.0052 115.17 26.2707C114.218 27.7257 112.493 28.941 110.838 28.9425C109.291 28.9425 108.337 27.9927 108.337 25.9248C108.337 24.5896 108.705 23.0269 108.966 21.619C109.003 21.4263 109.003 21.355 109.003 21.355C109.003 21.2821 108.966 21.2821 108.93 21.2821C108.894 21.2821 108.858 21.3186 108.824 21.402C107.134 24.6488 103.97 28.9561 100.268 28.9577C97.7678 28.9577 96.3396 26.782 96.3381 23.4639C96.3381 20.566 97.3233 16.9338 98.9422 14.083C101.108 10.2703 104.119 8.20084 107.13 8.19932C109.558 8.19932 111.141 9.41308 112.129 9.41157C113.117 9.41157 113.485 8.19629 114.224 8.19629C114.772 8.19629 114.927 8.61655 114.927 9.00192M100.157 23.0042C100.157 24.3393 100.456 26.1311 101.92 26.1296C103.206 26.1296 104.859 24.6018 106.954 21.4733C109.262 17.9974 110.665 13.9556 110.665 12.6204C110.665 11.0577 107.903 10.0245 106.736 10.0245C105.784 10.0245 104.939 10.4099 104.201 11.1321C101.405 14.0314 100.157 20.3688 100.159 23.0027" fill="black"/>
<path d="M137 25.5649C137 26.0215 136.596 26.6709 135.715 27.4781C134.799 28.3201 133.549 28.9346 132.442 28.9346C131.157 28.9346 129.763 28.0576 129.763 25.8091C129.763 23.019 131.855 16.3797 131.854 13.4091C131.854 12.6869 131.781 12.1103 131.448 11.6901C131.233 11.3897 130.781 11.1135 130.199 11.1135C128.698 11.1135 126.712 12.6414 124.689 16.4192C122.999 19.5825 122.013 22.4091 121.311 25.4996L120.801 27.9408C120.73 28.2898 120.539 28.4339 120.17 28.5189L117.814 28.9406C117.587 28.9771 117.552 28.9771 117.516 28.9771C117.289 28.9771 117.183 28.8208 117.183 28.6402C117.183 28.6038 117.183 28.5674 117.219 28.3762L121.473 6.77585C121.699 5.6334 121.841 4.79135 121.841 4.17841C121.841 2.423 119.568 3.03747 119.568 1.92991C119.568 1.40041 119.937 1.12428 120.853 1.01504C122.175 0.85877 123.424 0.556847 124.71 0.135065C124.936 0.0622394 125.114 0.0273438 125.292 0.0273438C125.768 0.0273438 126.066 0.254924 126.066 0.748014C126.066 0.784427 126.066 0.82084 126.03 1.01201L123.309 14.9748C123.273 15.1675 123.273 15.2039 123.273 15.2039C123.273 15.2403 123.273 15.3602 123.379 15.3602C123.451 15.3602 123.486 15.2403 123.558 15.1311C125.866 10.8966 128.698 8.18988 131.637 8.18988C134.244 8.18988 135.459 10.0166 135.459 12.5776C135.459 16.2811 133.439 22.884 133.439 25.1689C133.439 25.8182 133.618 26.2036 134.142 26.2036C135.024 26.2036 135.653 24.9762 136.416 24.9762C136.749 24.9762 136.964 25.2402 136.964 25.5891" fill="black"/>
</svg>
